<svg width="20" height="20" viewBox="0 0 20 20" fill="none" xmlns="http://www.w3.org/2000/svg">
<path d="M18 11V2.83C18 1.27 16.73 0 15.17 0C14.42 0 13.7 0.3 13.17 0.83L11.92 2.08C11.76 2.03 11.59 2 11.41 2C11.01 2 10.64 2.12 10.33 2.32L13.09 5.08C13.29 4.77 13.41 4.4 13.41 4C13.41 3.82 13.38 3.66 13.34 3.49L14.59 2.24C14.7062 2.12512 14.8539 2.04722 15.0143 2.0161C15.1748 1.98498 15.3408 2.00203 15.4916 2.06512C15.6424 2.12821 15.7711 2.2345 15.8616 2.37061C15.952 2.50673 16.0002 2.66657 16 2.83V11H9.15C8.85 10.79 8.58 10.55 8.33 10.28L6.93 8.73C6.74 8.52 6.5 8.35 6.24 8.23C5.89698 8.06223 5.51692 7.98448 5.13557 8.00406C4.75422 8.02364 4.38412 8.13991 4.06009 8.34193C3.73606 8.54395 3.46874 8.82508 3.28329 9.15887C3.09784 9.49267 3.00036 9.86815 3 10.25V11H0V17C0 18.1 0.9 19 2 19C2 19.55 2.45 20 3 20H17C17.55 20 18 19.55 18 19C19.1 19 20 18.1 20 17V11H18Z" fill="#4F4F4F"/>
</svg>
