<svg width="22" height="16" viewBox="0 0 22 16" fill="none" xmlns="http://www.w3.org/2000/svg">
<path d="M2.29625 16H19.7037C20.1798 15.999 20.6361 15.8094 20.9728 15.4728C21.3094 15.1361 21.499 14.6798 21.5 14.2037V14.125C21.4994 13.6279 21.3017 13.1513 20.9502 12.7998C20.5987 12.4483 20.1221 12.2506 19.625 12.25C19.5255 12.25 19.4302 12.2105 19.3598 12.1402C19.2895 12.0698 19.25 11.9745 19.25 11.875V0.25H2.75V11.875C2.75 11.9745 2.71049 12.0698 2.64016 12.1402C2.56984 12.2105 2.47446 12.25 2.375 12.25C1.8779 12.2506 1.40133 12.4483 1.04983 12.7998C0.698331 13.1513 0.500595 13.6279 0.5 14.125V14.2023C0.500594 14.6786 0.689985 15.1353 1.02668 15.4723C1.36337 15.8092 1.8199 15.999 2.29625 16V16ZM3.5 5.875C3.5 5.77554 3.53951 5.68016 3.60984 5.60983C3.68016 5.53951 3.77554 5.5 3.875 5.5H6.875V2.875C6.875 2.77554 6.91451 2.68016 6.98483 2.60983C7.05516 2.53951 7.15054 2.5 7.25 2.5H18.125C18.2245 2.5 18.3198 2.53951 18.3902 2.60983C18.4605 2.68016 18.5 2.77554 18.5 2.875V13.375C18.5 13.4745 18.4605 13.5698 18.3902 13.6402C18.3198 13.7105 18.2245 13.75 18.125 13.75H14.75C14.6505 13.75 14.5552 13.7105 14.4848 13.6402C14.4145 13.5698 14.375 13.4745 14.375 13.375C14.375 13.2755 14.4145 13.1802 14.4848 13.1098C14.5552 13.0395 14.6505 13 14.75 13H17.75V5.84912C17.0901 5.76499 16.4767 5.4641 16.0063 4.99368C15.5359 4.52325 15.235 3.90994 15.1509 3.25H13.25V6.25C13.25 6.34946 13.2105 6.44484 13.1402 6.51517C13.0698 6.58549 12.9745 6.625 12.875 6.625C12.7755 6.625 12.6802 6.58549 12.6098 6.51517C12.5395 6.44484 12.5 6.34946 12.5 6.25V3.25H7.625V5.875C7.625 5.97446 7.58549 6.06984 7.51517 6.14017C7.44484 6.21049 7.34946 6.25 7.25 6.25H4.25V9.25H7.25C7.34946 9.25 7.44484 9.28951 7.51517 9.35983C7.58549 9.43016 7.625 9.52554 7.625 9.625C7.625 9.72446 7.58549 9.81984 7.51517 9.89017C7.44484 9.96049 7.34946 10 7.25 10H4.25V13H8.75V11.5C8.75 11.4005 8.78951 11.3052 8.85983 11.2348C8.93016 11.1645 9.02554 11.125 9.125 11.125C9.22446 11.125 9.31984 11.1645 9.39017 11.2348C9.46049 11.3052 9.5 11.4005 9.5 11.5V13H12.5V8.5H9.5V10C9.5 10.0995 9.46049 10.1948 9.39017 10.2652C9.31984 10.3355 9.22446 10.375 9.125 10.375C9.02554 10.375 8.93016 10.3355 8.85983 10.2652C8.78951 10.1948 8.75 10.0995 8.75 10V8.125C8.75 8.02554 8.78951 7.93016 8.85983 7.85983C8.93016 7.78951 9.02554 7.75 9.125 7.75H15.875C15.9745 7.75 16.0698 7.78951 16.1402 7.85983C16.2105 7.93016 16.25 8.02554 16.25 8.125C16.25 8.22446 16.2105 8.31984 16.1402 8.39017C16.0698 8.46049 15.9745 8.5 15.875 8.5H13.25V13.375C13.25 13.4745 13.2105 13.5698 13.1402 13.6402C13.0698 13.7105 12.9745 13.75 12.875 13.75H3.875C3.77554 13.75 3.68016 13.7105 3.60984 13.6402C3.53951 13.5698 3.5 13.4745 3.5 13.375V5.875Z" fill="#4F4F4F"/>
</svg>
